<?xml version="1.0" encoding="UTF-8" standalone="no"?>
<!DOCTYPE svg PUBLIC "-//W3C//DTD SVG 1.1//EN" "http://www.w3.org/Graphics/SVG/1.1/DTD/svg11.dtd">
<svg width="100%" height="100%" viewBox="0 0 1142 434" version="1.1" xmlns="http://www.w3.org/2000/svg" xmlns:xlink="http://www.w3.org/1999/xlink" xml:space="preserve" xmlns:serif="http://www.serif.com/" style="fill-rule:evenodd;clip-rule:evenodd;stroke-linecap:round;stroke-linejoin:round;stroke-miterlimit:1.5;">
    <g transform="matrix(1,0,0,1,4.12567,-9.75322)">
        <g transform="matrix(1.74147,0,0,1.62884,-2211.23,-16.9974)">
            <path d="M1916.34,46.179C1917.69,43 1919.04,39.804 1920.39,36.591L1895.38,18.866L1860.78,39.995L1860.4,79.606L1825.95,99.931L1825.95,139.644L1790.47,159.693L1757.02,139.644L1757.02,99.931L1723.79,79.606L1688.58,99.931L1688.58,139.644L1653.36,159.693L1653.36,199.195L1618.86,219.285L1618.98,260.329L1584.98,280.039L1549.52,259.384L1548.83,219.606L1584.56,199.195L1584.56,159.693L1549.39,139.644L1514.22,159.693L1514.22,199.195L1479.41,218.339L1444.36,199.195L1444.36,159.693L1410.47,139.838L1410.52,99.473L1376.15,79.764L1341.15,98.851L1341.13,140.445L1376.34,159.693L1376.34,199.195L1341.1,219.289L1341.1,259.743L1306.78,279.661L1269.66,259.743" style="fill:none;stroke:white;stroke-width:4.72px;"/>
        </g>
    </g>
</svg>
